# This file uses centimeters as units for non-parametric coordinates.

mtllib wand.mtl
g default
v -0.189293 0.439951 0.145079
v 0.098344 0.401793 0.145079
v -0.098344 1.125521 0.145079
v 0.189293 1.087363 0.145079
v -0.109473 1.154234 -0.225114
v 0.209251 1.111471 -0.217350
v -0.189293 0.439951 -0.145079
v 0.098344 0.401793 -0.145079
v -0.098345 2.293540 0.093412
v 0.189293 2.255382 0.093412
v 0.165738 2.197061 -0.077774
v -0.098345 2.293540 -0.093412
v -0.098345 2.293540 0.093413
v 0.189293 2.255382 0.093413
v 0.150940 2.264339 -0.143816
v -0.098345 2.293540 -0.093412
v 0.186685 4.089907 0.093412
v 0.482438 4.212880 -0.014622
v 0.431578 4.198644 -0.131169
v 0.253093 4.255430 -0.108763
v -0.076402 5.863138 -0.083616
v 0.112768 5.573788 0.063230
v 0.139173 5.588857 -0.093412
v -0.039556 5.863138 -0.142458
v -0.087882 2.359479 -0.093412
v -0.225350 2.453995 0.021346
v -0.222959 2.469062 -0.021345
v -0.225350 2.453995 -0.021345
v 0.460836 4.253062 -0.093412
v 0.499745 4.185384 -0.026970
v 0.549001 4.349883 -0.097180
v 0.564261 4.348130 -0.057823
v 0.537155 4.318982 -0.103398
vt 0.375000 0.000000
vt 0.625000 0.000000
vt 0.375000 0.250000
vt 0.625000 0.250000
vt 0.375000 0.500000
vt 0.625000 0.500000
vt 0.375000 0.750000
vt 0.625000 0.750000
vt 0.375000 1.000000
vt 0.625000 1.000000
vt 0.875000 0.250000
vt 0.125000 0.000000
vt 0.125000 0.250000
vt 0.375000 0.250000
vt 0.625000 0.250000
vt 0.625000 0.500000
vt 0.375000 0.500000
vt 0.375000 0.250000
vt 0.625000 0.250000
vt 0.625000 0.500000
vt 0.375000 0.500000
vt 0.375000 0.250000
vt 0.625000 0.250000
vt 0.625000 0.500000
vt 0.375000 0.500000
vt 0.375000 0.250000
vt 0.625000 0.250000
vt 0.625000 0.500000
vt 0.375000 0.500000
vt 0.375000 0.500000
vt 0.375000 0.250000
vt 0.375000 0.500000
vt 0.375000 0.500000
vt 0.625000 0.500000
vt 0.625000 0.352909
vt 0.625000 0.500000
vt 0.625000 0.352909
vt 0.625000 0.500000
vn -0.000000 0.000000 1.000000
vn -0.000000 0.000000 1.000000
vn -0.000000 0.000000 1.000000
vn 0.000000 0.000000 1.000000
vn 0.775364 0.602671 0.188676
vn 0.772863 0.600072 0.206389
vn 0.754948 0.582612 0.301026
vn 0.711533 0.543328 0.445551
vn 0.991315 -0.131509 0.000000
vn 0.757409 -0.178890 -0.627956
vn 0.989533 -0.142045 0.025454
vn 0.695263 -0.179529 -0.695974
vn -0.000916 -0.106021 -0.994363
vn -0.014557 -0.109735 -0.993854
vn -0.131509 -0.991315 0.000000
vn -0.131509 -0.991315 0.000000
vn -0.131509 -0.991315 0.000000
vn -0.131509 -0.991315 0.000000
vn -0.991315 0.131509 0.000000
vn -0.992259 0.122149 0.022411
vn -0.992322 0.121192 0.024692
vn -0.992578 0.115264 0.038778
vn 0.807459 0.106955 -0.580147
vn 0.663627 0.095301 -0.741969
vn 0.759971 0.048552 0.648141
vn 0.477982 0.038816 0.877512
vn -0.622750 0.101540 -0.775804
vn -0.687661 0.089997 -0.720432
vn -0.685841 0.032160 0.727040
vn -0.754915 0.032107 0.655036
vn -0.131509 -0.991315 0.000000
vn -0.131509 -0.991315 0.000000
vn -0.131509 -0.991315 0.000000
vn -0.131509 -0.991315 0.000000
vn 0.235179 0.971952 0.000000
vn 0.985610 0.062705 -0.156976
vn 0.985610 0.062694 -0.156977
vn 0.985610 0.062694 -0.156977
vn 0.116664 0.993171 0.000000
vn -0.218739 -0.707631 -0.671872
vn -0.218740 -0.707622 -0.671881
vn -0.218739 -0.707631 -0.671872
vn 0.131509 0.991315 0.000000
vn -0.131509 -0.991315 0.000000
vn -0.000000 -0.000000 0.000000
vn 0.976524 -0.140612 -0.163184
vn 0.879207 -0.161425 -0.448261
vn 0.972582 -0.142640 -0.183680
vn 0.960498 0.213010 0.179084
vn 0.920735 -0.163487 -0.354286
vn -0.279111 0.044286 -0.959237
vn -0.191682 0.033046 -0.980901
vn -0.193228 0.034436 -0.980549
vn -0.043722 0.035350 -0.998418
vn -0.435189 -0.021649 -0.900079
vn -0.987645 0.156711 0.000000
vn -0.987645 0.156711 0.000000
vn -0.987645 0.156711 0.000000
vn 0.337741 0.014530 0.941127
vn -0.476043 -0.005826 0.879402
vn -0.112295 0.019001 0.993493
vn -0.627752 -0.015440 0.778260
vn 0.893519 -0.270392 -0.358486
vn 0.893519 -0.270392 -0.358486
vn 0.893519 -0.270392 -0.358486
vn -0.834325 -0.175943 -0.522442
vn -0.528570 -0.177850 -0.830050
vn -0.868212 -0.090715 -0.487831
vn -0.049563 -0.114414 -0.992196
vn 0.601486 0.210367 -0.770689
vn -0.984173 0.177057 0.007376
vn -0.426131 0.167940 0.888937
vn -0.989131 0.068408 0.130154
vn -0.006343 0.082081 0.996605
vn 0.000000 0.000000 0.000000
vn 0.689935 0.669611 0.274974
vn 0.689935 0.669611 0.274973
vn 0.689935 0.669612 0.274972
vn 0.689935 0.669615 0.274964
vn -0.426371 0.067654 -0.902015
vn -0.426373 0.067655 -0.902014
vn -0.784096 -0.620640 0.000000
vn -0.784096 -0.620640 0.000000
vn -0.784096 -0.620640 0.000000
vn -0.784096 -0.620640 0.000000
vn 0.955747 0.230147 0.183251
vn 0.957616 0.232148 0.170527
vn 0.962431 0.262894 -0.067926
vn -0.475269 0.461919 0.748832
vn -0.564788 0.461195 0.684334
vn -0.643354 0.455320 0.615450
vn -0.847656 0.401724 0.346550
vn 0.698181 -0.492667 -0.519445
vn 0.761617 -0.469059 -0.447128
vn 0.745785 -0.475664 -0.466422
vn 0.877456 -0.398460 -0.267021
vn -0.480762 0.441880 -0.757370
vn -0.392171 0.323603 -0.861094
s 1
g pCube2
usemtl initialShadingGroup
f 1/1/1 2/2/2 3/3/3
f 3/3/3 2/2/2 4/4/4
s 2
f 22/27/5 23/28/6 21/26/7
f 21/26/7 23/28/6 24/29/8
s 3
f 2/2/9 8/8/10 4/4/11
f 4/4/11 8/8/10 6/11/12
f 6/11/12 8/8/10 5/5/13
f 8/8/10 7/7/14 5/5/13
s 4
f 7/7/15 8/8/16 1/9/17
f 1/9/17 8/8/16 2/10/18
s 5
f 1/1/19 3/3/20 7/12/21
f 7/12/21 3/3/20 5/13/22
s 6
f 6/6/23 11/16/24 4/4/25
f 4/4/25 11/16/24 10/15/26
f 6/6/23 5/5/27 11/16/24
f 11/16/24 5/5/27 12/17/28
f 4/4/25 10/15/26 3/3/29
f 10/15/26 9/14/30 3/3/29
f 3/3/29 9/14/30 5/5/27
f 9/14/30 12/17/28 5/5/27
s 7
f 9/14/31 10/15/32 13/18/33
f 13/18/33 10/15/32 14/19/34
s 8
f 14/19/35 10/15/36 15/20/37
f 10/15/36 11/16/38 15/20/37
s 9
f 16/21/39 15/20/40 12/17/41
f 11/16/42 12/17/41 15/20/40
s 10
f 16/21/43 9/14/44 13/18/45
s 11
f 15/20/46 19/24/47 14/19/48
f 18/23/49 14/19/48 30/35/50
f 14/19/48 19/24/47 30/35/50
s 12
f 16/21/51 25/30/52 15/20/53
f 15/20/53 25/30/52 19/24/54
f 25/30/52 20/25/55 19/24/54
s off
f 26/31/56 27/32/57 28/33/58
s 13
f 18/23/59 22/27/60 17/22/61
f 17/22/61 22/27/60 21/26/62
s off
f 31/36/63 32/37/64 33/38/65
s 12
f 21/26/66 24/29/67 17/22/68
f 24/29/67 23/28/69 17/22/68
f 17/22/68 23/28/69 20/25/55
f 29/34/70 19/24/54 23/28/69
f 23/28/69 19/24/54 20/25/55
s 13
f 25/30/71 13/18/72 20/25/73
f 13/18/72 14/19/74 20/25/73
f 20/25/73 14/19/74 17/22/61
f 17/22/61 14/19/74 18/23/59
s 10
f 12/17/75 9/14/44 16/21/43
s 17
f 13/18/76 25/30/77 26/31/78
f 26/31/78 25/30/77 27/32/79
s 12
f 16/21/51 28/33/80 25/30/52
f 25/30/52 28/33/80 27/32/81
s 18
f 16/21/82 13/18/83 28/33/84
f 28/33/84 13/18/83 26/31/85
s 11
f 23/28/86 22/27/87 29/34/88
f 30/35/50 29/34/88 18/23/49
f 18/23/49 29/34/88 22/27/87
s 20
f 29/34/89 30/35/90 31/36/91
f 31/36/91 30/35/90 32/37/92
s 21
f 19/24/93 33/38/94 30/35/95
f 30/35/95 33/38/94 32/37/96
s 12
f 19/24/54 29/34/70 33/38/97
f 33/38/97 29/34/70 31/36/98
