# This file uses centimeters as units for non-parametric coordinates.

mtllib moth1.mtl
g default
v 2.234943 9.249496 0.000000
v 1.557677 8.999123 0.000000
v 0.788810 8.521629 0.000000
v 0.021038 7.762973 0.000000
v 0.020907 7.627851 0.000000
v 0.082048 7.494391 0.000000
v 0.233652 7.412825 0.000000
v 0.504909 7.433380 0.000000
v 0.504909 6.893408 0.000000
v 0.680224 6.444600 0.000000
v 1.192146 6.444600 0.000000
v 1.192146 5.813464 0.000000
v 1.795231 5.603086 0.000000
v 1.795231 4.908836 0.000000
v 2.215989 4.908836 0.000000
v 2.727910 5.357644 0.000000
v 2.489481 4.368864 0.000000
v 3.239832 4.908836 0.000000
v 3.779804 4.908836 0.000000
v 3.239832 4.095372 0.000000
v 4.375876 3.646564 0.000000
v 4.768583 3.920056 0.000000
v 4.768583 3.646564 0.000000
v 5.252454 3.646564 0.000000
v 5.108805 3.367025 0.000000
v 4.950035 2.964237 0.000000
v 4.821507 2.481855 0.000000
v 4.768583 1.963534 0.000000
v 5.098177 1.788219 0.000000
v 5.252454 0.792426 0.000000
v 6.178121 1.241234 0.000000
v 7.356241 1.486676 0.000000
v 7.622721 1.241234 0.000000
v 7.019635 0.792426 0.000000
v 7.805049 0.014025 0.000000
v 9.333801 0.014025 0.000000
v 10.596073 0.014025 0.000000
v 11.079944 0.582048 0.000000
v 11.472651 0.974755 0.000000
v 11.949509 1.486676 0.000000
v 11.318373 6.711080 0.000000
v 11.318373 7.945302 0.000000
v 11.802244 7.643759 0.000000
v 12.251052 7.643759 0.000000
v 11.802244 9.326788 0.000000
v 11.079944 9.326788 0.000000
v 9.582049 9.706653 0.000000
v 7.508066 9.964586 0.000000
v 5.132013 9.903620 0.000000
v 2.727910 9.326788 0.000000
v 2.234943 9.249496 0.162598
v 1.557677 8.999123 0.162598
v 0.788810 8.521629 0.162598
v 0.021038 7.762973 0.162598
v 0.020907 7.627851 0.162598
v 0.082048 7.494391 0.162598
v 0.233652 7.412825 0.162598
v 0.504909 7.433380 0.162598
v 0.504909 6.893408 0.162598
v 0.680224 6.444600 0.162598
v 1.192146 6.444600 0.162598
v 1.192146 5.813464 0.162598
v 1.795231 5.603086 0.162598
v 1.795231 4.908836 0.162598
v 2.215989 4.908836 0.162598
v 2.727910 5.357644 0.162598
v 2.489481 4.368864 0.162598
v 3.239832 4.908836 0.162598
v 3.779804 4.908836 0.162598
v 3.239832 4.095372 0.162598
v 4.375876 3.646564 0.162598
v 4.768583 3.920056 0.162598
v 4.768583 3.646564 0.162598
v 5.252454 3.646564 0.162598
v 5.108805 3.367025 0.162598
v 4.950035 2.964237 0.162598
v 4.821507 2.481855 0.162598
v 4.768583 1.963534 0.162598
v 5.098177 1.788219 0.162598
v 5.252454 0.792426 0.162598
v 6.178121 1.241234 0.162598
v 7.356241 1.486676 0.162598
v 7.622721 1.241234 0.162598
v 7.019635 0.792426 0.162598
v 7.805049 0.014025 0.162598
v 9.333801 0.014025 0.162598
v 10.596073 0.014025 0.162598
v 11.079944 0.582048 0.162598
v 11.472651 0.974755 0.162598
v 11.949509 1.486676 0.162598
v 11.318373 6.711080 0.162598
v 11.318373 7.945302 0.162598
v 11.802244 7.643759 0.162598
v 12.251052 7.643759 0.162598
v 11.802244 9.326788 0.162598
v 11.079944 9.326788 0.162598
v 9.582049 9.706653 0.162598
v 7.508066 9.964586 0.162598
v 5.132013 9.903620 0.162598
v 2.727910 9.326788 0.162598
vt 0.526580 0.557533
vt 0.526580 0.551566
vt 0.570734 0.551566
vt 0.570734 0.557533
vt 0.526580 0.545674
vt 0.570734 0.545674
vt 0.526580 0.591030
vt 0.570734 0.591030
vt 0.526580 0.612113
vt 0.570734 0.612113
vt 0.446800 0.589827
vt 0.422958 0.589827
vt 0.422958 0.545674
vt 0.446800 0.545674
vt 0.403142 0.589827
vt 0.403142 0.545674
vt 0.369235 0.589827
vt 0.341368 0.589827
vt 0.341368 0.545674
vt 0.369235 0.545674
vt 0.303436 0.589827
vt 0.272782 0.589827
vt 0.272782 0.545674
vt 0.303436 0.545674
vt 0.220298 0.589827
vt 0.176639 0.589827
vt 0.176639 0.545674
vt 0.220298 0.545674
vt 0.129418 0.589827
vt 0.117343 0.589827
vt 0.117343 0.545674
vt 0.129418 0.545674
vt 0.675997 0.619985
vt 0.675997 0.607643
vt 0.720150 0.607643
vt 0.720150 0.619985
vt 0.675997 0.589858
vt 0.720150 0.589858
vt 0.675997 0.568559
vt 0.720150 0.568559
vt 0.675997 0.545674
vt 0.720150 0.545674
vt 0.064470 0.589827
vt 0.020502 0.589827
vt 0.020502 0.545674
vt 0.064470 0.545674
vt 0.869567 0.610696
vt 0.869567 0.841372
vt 0.825413 0.841372
vt 0.825413 0.610696
vt 0.869567 0.895868
vt 0.825413 0.895868
vt 0.869567 0.588093
vt 0.825413 0.588093
vt 0.869567 0.570754
vt 0.825413 0.570754
vt 0.869567 0.545674
vt 0.825413 0.545674
vt 0.670345 0.545674
vt 0.670345 0.619985
vt 0.626191 0.619985
vt 0.626191 0.545674
vt 0.919372 0.968104
vt 0.919372 0.998008
vt 0.875219 0.998008
vt 0.875219 0.968104
vt 0.919372 0.946338
vt 0.875219 0.946338
vt 0.919372 0.840188
vt 0.875219 0.840188
vt 0.919372 0.735277
vt 0.875219 0.735277
vt 0.919372 0.643703
vt 0.875219 0.643703
vt 0.919372 0.577566
vt 0.875219 0.577566
vt 0.919372 0.545674
vt 0.875219 0.545674
vt 0.452452 0.545674
vt 0.459146 0.545674
vt 0.459146 0.589827
vt 0.452452 0.589827
vt 0.471123 0.545674
vt 0.471123 0.589827
vt 0.374887 0.545674
vt 0.397490 0.545674
vt 0.397490 0.589827
vt 0.374887 0.589827
vt 0.309088 0.545674
vt 0.335716 0.545674
vt 0.335716 0.589827
vt 0.309088 0.589827
vt 0.225949 0.545674
vt 0.244527 0.545674
vt 0.244527 0.589827
vt 0.225949 0.589827
vt 0.267131 0.545674
vt 0.267131 0.589827
vt 0.476775 0.569515
vt 0.476775 0.545674
vt 0.520928 0.545674
vt 0.520928 0.569515
vt 0.476775 0.602646
vt 0.520928 0.602646
vt 0.576386 0.613173
vt 0.576386 0.563013
vt 0.620539 0.563013
vt 0.620539 0.613173
vt 0.576386 0.545674
vt 0.620539 0.545674
vt 0.090326 0.545674
vt 0.111691 0.545674
vt 0.111691 0.589827
vt 0.090326 0.589827
vt 0.070121 0.545674
vt 0.084674 0.545674
vt 0.084674 0.589827
vt 0.070121 0.589827
vt 0.725802 0.650329
vt 0.725802 0.609458
vt 0.769956 0.609458
vt 0.769956 0.650329
vt 0.725802 0.557440
vt 0.769956 0.557440
vt 0.725802 0.545674
vt 0.769956 0.545674
vt 0.775608 0.668907
vt 0.775608 0.601407
vt 0.819761 0.601407
vt 0.819761 0.668907
vt 0.775608 0.545674
vt 0.819761 0.545674
vt 0.775608 0.703586
vt 0.819761 0.703586
vt 0.050310 0.593504
vt 0.070127 0.593504
vt 0.070127 0.637658
vt 0.050310 0.637658
vt 0.028945 0.593504
vt 0.028945 0.637658
vt 0.029996 0.422473
vt 0.004527 0.316323
vt 0.001835 0.211412
vt 0.013224 0.119838
vt 0.029996 0.053701
vt 0.029996 0.021809
vt 0.104308 0.001992
vt 0.104308 0.021809
vt 0.090994 0.043173
vt 0.145489 0.043173
vt 0.376165 0.015306
vt 0.398768 0.036361
vt 0.416108 0.053701
vt 0.441188 0.075065
vt 0.441188 0.130799
vt 0.441188 0.198299
vt 0.406819 0.232978
vt 0.387002 0.206349
vt 0.376165 0.218115
vt 0.387002 0.270134
vt 0.406819 0.311005
vt 0.362851 0.317817
vt 0.355110 0.332370
vt 0.332224 0.330033
vt 0.310926 0.324358
vt 0.293141 0.317348
vt 0.280798 0.311005
vt 0.280798 0.332370
vt 0.268723 0.332370
vt 0.280798 0.349709
vt 0.260982 0.399870
vt 0.225065 0.376028
vt 0.225065 0.399870
vt 0.248906 0.433000
vt 0.205248 0.422473
vt 0.225065 0.445076
vt 0.225065 0.463654
vt 0.194411 0.463654
vt 0.185122 0.490282
vt 0.157255 0.490282
vt 0.157255 0.512885
vt 0.137439 0.520626
vt 0.113597 0.520626
vt 0.114504 0.532603
vt 0.110903 0.539297
vt 0.105010 0.541997
vt 0.099044 0.541991
vt 0.065547 0.508091
vt 0.044464 0.474143
vt 0.033409 0.444239
vt 0.855050 0.444239
vt 0.843995 0.474143
vt 0.822912 0.508091
vt 0.789415 0.541991
vt 0.783449 0.541997
vt 0.777556 0.539297
vt 0.773955 0.532603
vt 0.774862 0.520626
vt 0.751020 0.520626
vt 0.731204 0.512885
vt 0.731204 0.490282
vt 0.703337 0.490282
vt 0.694048 0.463654
vt 0.663394 0.463654
vt 0.663394 0.445076
vt 0.683211 0.422473
vt 0.639553 0.433000
vt 0.663394 0.399870
vt 0.663394 0.376028
vt 0.627477 0.399870
vt 0.607661 0.349709
vt 0.619736 0.332370
vt 0.607661 0.332370
vt 0.607661 0.311005
vt 0.595318 0.317348
vt 0.577533 0.324358
vt 0.556235 0.330033
vt 0.533349 0.332370
vt 0.525608 0.317817
vt 0.481640 0.311005
vt 0.501457 0.270134
vt 0.512294 0.218115
vt 0.501457 0.206349
vt 0.481640 0.232978
vt 0.447271 0.198299
vt 0.447271 0.130799
vt 0.447271 0.075065
vt 0.472351 0.053701
vt 0.489691 0.036361
vt 0.512294 0.015306
vt 0.742970 0.043173
vt 0.797465 0.043173
vt 0.784151 0.021808
vt 0.784151 0.001992
vt 0.858463 0.021808
vt 0.858463 0.053701
vt 0.875235 0.119838
vt 0.886624 0.211412
vt 0.883932 0.316323
vt 0.858463 0.422473
vt 0.170988 0.589827
vt 0.135070 0.589827
vt 0.135070 0.545674
vt 0.170988 0.545674
vt 0.021652 0.637658
vt 0.001835 0.637658
vt 0.001835 0.593504
vt 0.021652 0.593504
vn 0.000000 0.000000 -1.000000
vn 0.000000 0.000000 -1.000000
vn 0.000000 0.000000 -1.000000
vn 0.000000 0.000000 -1.000000
vn 0.000000 0.000000 -1.000000
vn 0.000000 0.000000 -1.000000
vn 0.000000 0.000000 -1.000000
vn 0.000000 0.000000 -1.000000
vn 0.000000 0.000000 -1.000000
vn 0.000000 0.000000 -1.000000
vn 0.000000 0.000000 -1.000000
vn 0.000000 0.000000 -1.000000
vn 0.000000 0.000000 -1.000000
vn 0.000000 0.000000 -1.000000
vn 0.000000 0.000000 -1.000000
vn 0.000000 0.000000 -1.000000
vn 0.000000 0.000000 -1.000000
vn 0.000000 0.000000 -1.000000
vn 0.000000 0.000000 -1.000000
vn 0.000000 0.000000 -1.000000
vn 0.000000 0.000000 -1.000000
vn 0.000000 0.000000 -1.000000
vn 0.000000 0.000000 -1.000000
vn 0.000000 0.000000 -1.000000
vn 0.000000 0.000000 -1.000000
vn 0.000000 0.000000 -1.000000
vn 0.000000 0.000000 -1.000000
vn 0.000000 0.000000 -1.000000
vn 0.000000 0.000000 -1.000000
vn 0.000000 0.000000 -1.000000
vn 0.000000 0.000000 -1.000000
vn 0.000000 0.000000 -1.000000
vn 0.000000 0.000000 -1.000000
vn 0.000000 0.000000 -1.000000
vn 0.000000 0.000000 -1.000000
vn 0.000000 0.000000 -1.000000
vn 0.000000 0.000000 -1.000000
vn 0.000000 0.000000 -1.000000
vn 0.000000 0.000000 -1.000000
vn 0.000000 0.000000 -1.000000
vn 0.000000 0.000000 -1.000000
vn 0.000000 0.000000 -1.000000
vn 0.000000 0.000000 -1.000000
vn 0.000000 0.000000 -1.000000
vn 0.000000 0.000000 -1.000000
vn 0.000000 0.000000 -1.000000
vn 0.000000 0.000000 -1.000000
vn 0.000000 0.000000 -1.000000
vn 0.000000 0.000000 -1.000000
vn 0.000000 0.000000 -1.000000
vn -0.269630 0.962964 0.000000
vn -0.449584 0.893238 0.000000
vn -0.449584 0.893238 0.000000
vn -0.269630 0.962964 0.000000
vn -0.626807 0.779175 0.000000
vn -0.626807 0.779175 0.000000
vn -0.702872 0.711317 0.000000
vn -0.702872 0.711317 0.000000
vn -1.000000 0.000973 0.000000
vn -0.975158 -0.221512 0.000000
vn -0.975158 -0.221512 0.000000
vn -1.000000 0.000973 0.000000
vn -0.909136 -0.416499 0.000000
vn -0.909136 -0.416499 0.000000
vn -0.473800 -0.880633 0.000000
vn -0.473800 -0.880633 0.000000
vn -0.473800 -0.880633 0.000000
vn -0.473800 -0.880633 0.000000
vn 0.075560 -0.997141 0.000000
vn 0.075560 -0.997141 0.000000
vn 0.075560 -0.997141 0.000000
vn 0.075560 -0.997141 0.000000
vn -1.000000 0.000000 0.000000
vn -0.984643 -0.174582 0.000000
vn -0.984643 -0.174582 0.000000
vn -1.000000 0.000000 0.000000
vn -0.931457 -0.363850 0.000000
vn -0.931457 -0.363850 0.000000
vn 0.000000 -1.000000 0.000000
vn 0.000000 -1.000000 0.000000
vn 0.000000 -1.000000 0.000000
vn 0.000000 -1.000000 0.000000
vn -1.000000 0.000000 0.000000
vn -1.000000 0.000000 0.000000
vn -1.000000 0.000000 0.000000
vn -1.000000 0.000000 0.000000
vn -0.329372 -0.944200 0.000000
vn -0.329372 -0.944200 0.000000
vn -0.329372 -0.944200 0.000000
vn -0.329372 -0.944200 0.000000
vn -1.000000 0.000000 0.000000
vn -1.000000 0.000000 0.000000
vn -1.000000 0.000000 0.000000
vn -1.000000 0.000000 0.000000
vn 0.000000 -1.000000 0.000000
vn 0.000000 -1.000000 0.000000
vn 0.000000 -1.000000 0.000000
vn 0.000000 -1.000000 0.000000
vn 0.659234 -0.751938 0.000000
vn 0.659234 -0.751938 0.000000
vn 0.659234 -0.751938 0.000000
vn 0.659234 -0.751938 0.000000
vn -0.972136 0.234416 0.000000
vn -0.972136 0.234416 0.000000
vn -0.972136 0.234416 0.000000
vn -0.972136 0.234416 0.000000
vn 0.584105 -0.811678 0.000000
vn 0.584105 -0.811678 0.000000
vn 0.584105 -0.811678 0.000000
vn 0.584105 -0.811678 0.000000
vn 0.000000 -1.000000 0.000000
vn 0.000000 -1.000000 0.000000
vn 0.000000 -1.000000 0.000000
vn 0.000000 -1.000000 0.000000
vn -0.833154 0.553042 0.000000
vn -0.833154 0.553042 0.000000
vn -0.833154 0.553042 0.000000
vn -0.833154 0.553042 0.000000
vn -0.367428 -0.930052 0.000000
vn -0.367428 -0.930052 0.000000
vn -0.367428 -0.930052 0.000000
vn -0.367428 -0.930052 0.000000
vn 0.571494 -0.820606 0.000000
vn 0.571494 -0.820606 0.000000
vn 0.571494 -0.820606 0.000000
vn 0.571494 -0.820606 0.000000
vn -1.000000 0.000000 0.000000
vn -1.000000 0.000000 0.000000
vn -1.000000 0.000000 0.000000
vn -1.000000 0.000000 0.000000
vn 0.000000 -1.000000 0.000000
vn 0.000000 -1.000000 0.000000
vn 0.000000 -1.000000 0.000000
vn 0.000000 -1.000000 0.000000
vn -0.889435 0.457062 0.000000
vn -0.914227 0.405202 0.000000
vn -0.914227 0.405202 0.000000
vn -0.889435 0.457062 0.000000
vn -0.951155 0.308715 0.000000
vn -0.951155 0.308715 0.000000
vn -0.983955 0.178415 0.000000
vn -0.983955 0.178415 0.000000
vn -0.994828 0.101578 0.000000
vn -0.994828 0.101578 0.000000
vn -0.469613 -0.882873 0.000000
vn -0.469613 -0.882873 0.000000
vn -0.469613 -0.882873 0.000000
vn -0.469613 -0.882873 0.000000
vn -0.988210 -0.153103 0.000000
vn -0.988210 -0.153103 0.000000
vn -0.988210 -0.153103 0.000000
vn -0.988210 -0.153103 0.000000
vn 0.436274 -0.899814 0.000000
vn 0.313377 -0.949629 0.000000
vn 0.313377 -0.949629 0.000000
vn 0.436274 -0.899814 0.000000
vn 0.203954 -0.978980 0.000000
vn 0.203954 -0.978980 0.000000
vn -0.677476 -0.735545 0.000000
vn -0.677476 -0.735545 0.000000
vn -0.677476 -0.735545 0.000000
vn -0.677476 -0.735545 0.000000
vn -0.597011 0.802233 0.000000
vn -0.597011 0.802233 0.000000
vn -0.597011 0.802233 0.000000
vn -0.597011 0.802233 0.000000
vn -0.703929 -0.710271 0.000000
vn -0.703929 -0.710271 0.000000
vn -0.703929 -0.710271 0.000000
vn -0.703929 -0.710271 0.000000
vn 0.000000 -1.000000 0.000000
vn 0.000000 -1.000000 0.000000
vn 0.000000 -1.000000 0.000000
vn 0.000000 -1.000000 0.000000
vn 0.000000 -1.000000 0.000000
vn 0.000000 -1.000000 0.000000
vn 0.761244 -0.648466 0.000000
vn 0.738719 -0.674013 0.000000
vn 0.738719 -0.674013 0.000000
vn 0.761244 -0.648466 0.000000
vn 0.720941 -0.692997 0.000000
vn 0.720941 -0.692997 0.000000
vn 0.731722 -0.681604 0.000000
vn 0.731722 -0.681604 0.000000
vn 0.992782 0.119933 0.000000
vn 0.995259 0.097257 0.000000
vn 0.995259 0.097257 0.000000
vn 0.992782 0.119933 0.000000
vn 1.000000 0.000000 0.000000
vn 1.000000 0.000000 0.000000
vn -0.528893 -0.848689 0.000000
vn -0.528893 -0.848689 0.000000
vn -0.528893 -0.848689 0.000000
vn -0.528893 -0.848689 0.000000
vn 0.000000 -1.000000 0.000000
vn 0.000000 -1.000000 0.000000
vn 0.000000 -1.000000 0.000000
vn 0.000000 -1.000000 0.000000
vn 0.966235 0.257663 0.000000
vn 0.966235 0.257663 0.000000
vn 0.966235 0.257663 0.000000
vn 0.966235 0.257663 0.000000
vn 0.000000 1.000000 0.000000
vn 0.168645 0.985677 0.000000
vn 0.168645 0.985677 0.000000
vn 0.000000 1.000000 0.000000
vn 0.175781 0.984429 0.000000
vn 0.175781 0.984429 0.000000
vn 0.044219 0.999022 0.000000
vn 0.044219 0.999022 0.000000
vn -0.132254 0.991216 0.000000
vn -0.132254 0.991216 0.000000
vn -0.220244 0.975445 0.000000
vn -0.220244 0.975445 0.000000
vn 0.000000 0.000000 1.000000
vn 0.000000 0.000000 1.000000
vn 0.000000 0.000000 1.000000
vn 0.000000 0.000000 1.000000
vn 0.000000 0.000000 1.000000
vn 0.000000 0.000000 1.000000
vn 0.000000 0.000000 1.000000
vn 0.000000 0.000000 1.000000
vn 0.000000 0.000000 1.000000
vn 0.000000 0.000000 1.000000
vn 0.000000 0.000000 1.000000
vn 0.000000 0.000000 1.000000
vn 0.000000 0.000000 1.000000
vn 0.000000 0.000000 1.000000
vn 0.000000 0.000000 1.000000
vn 0.000000 0.000000 1.000000
vn 0.000000 0.000000 1.000000
vn 0.000000 0.000000 1.000000
vn 0.000000 0.000000 1.000000
vn 0.000000 0.000000 1.000000
vn 0.000000 0.000000 1.000000
vn 0.000000 0.000000 1.000000
vn 0.000000 0.000000 1.000000
vn 0.000000 0.000000 1.000000
vn 0.000000 0.000000 1.000000
vn 0.000000 0.000000 1.000000
vn 0.000000 0.000000 1.000000
vn 0.000000 0.000000 1.000000
vn 0.000000 0.000000 1.000000
vn 0.000000 0.000000 1.000000
vn 0.000000 0.000000 1.000000
vn 0.000000 0.000000 1.000000
vn 0.000000 0.000000 1.000000
vn 0.000000 0.000000 1.000000
vn 0.000000 0.000000 1.000000
vn 0.000000 0.000000 1.000000
vn 0.000000 0.000000 1.000000
vn 0.000000 0.000000 1.000000
vn 0.000000 0.000000 1.000000
vn 0.000000 0.000000 1.000000
vn 0.000000 0.000000 1.000000
vn 0.000000 0.000000 1.000000
vn 0.000000 0.000000 1.000000
vn 0.000000 0.000000 1.000000
vn 0.000000 0.000000 1.000000
vn 0.000000 0.000000 1.000000
vn 0.000000 0.000000 1.000000
vn 0.000000 0.000000 1.000000
vn 0.000000 0.000000 1.000000
vn 0.000000 0.000000 1.000000
s off
g svgMesh1
usemtl svgStandardSurface1SG
f 50/141/1 49/142/2 48/143/3 47/144/4 46/145/5 45/146/6 44/147/7 43/148/8 42/149/9 41/150/10 40/151/11 39/152/12 38/153/13 37/154/14 36/155/15 35/156/16 34/157/17 33/158/18 32/159/19 31/160/20 30/161/21 29/162/22 28/163/23 27/164/24 26/165/25 25/166/26 24/167/27 23/168/28 22/169/29 21/170/30 20/171/31 19/172/32 18/173/33 17/174/34 16/175/35 15/176/36 14/177/37 13/178/38 12/179/39 11/180/40 10/181/41 9/182/42 8/183/43 7/184/44 6/185/45 5/186/46 4/187/47 3/188/48 2/189/49 1/190/50
s 1
f 1/63/51 2/64/52 52/65/53 51/66/54
f 2/9/52 3/7/55 53/8/56 52/10/53
f 3/7/55 4/1/57 54/4/58 53/8/56
s 2
f 4/1/59 5/2/60 55/3/61 54/4/62
f 5/2/60 6/5/63 56/6/64 55/3/61
s off
f 6/79/65 7/80/66 57/81/67 56/82/68
f 7/80/69 8/83/70 58/84/71 57/81/72
s 3
f 8/11/73 9/12/74 59/13/75 58/14/76
f 9/12/74 10/15/77 60/16/78 59/13/75
s off
f 10/85/79 11/86/80 61/87/81 60/88/82
f 11/17/83 12/18/84 62/19/85 61/20/86
f 12/89/87 13/90/88 63/91/89 62/92/90
f 13/21/91 14/22/92 64/23/93 63/24/94
f 14/93/95 15/94/96 65/95/97 64/96/98
f 15/94/99 16/97/100 66/98/101 65/95/102
f 16/25/103 17/26/104 67/27/105 66/28/106
f 17/103/107 18/99/108 68/102/109 67/104/110
f 18/99/111 19/100/112 69/101/113 68/102/114
f 19/241/115 20/242/116 70/243/117 69/244/118
f 20/105/119 21/106/120 71/107/121 70/108/122
f 21/106/123 22/109/124 72/110/125 71/107/126
f 22/29/127 23/30/128 73/31/129 72/32/130
f 23/111/131 24/112/132 74/113/133 73/114/134
s 4
f 24/33/135 25/34/136 75/35/137 74/36/138
f 25/34/136 26/37/139 76/38/140 75/35/137
f 26/37/139 27/39/141 77/40/142 76/38/140
f 27/39/141 28/41/143 78/42/144 77/40/142
s off
f 28/115/145 29/116/146 79/117/147 78/118/148
f 29/43/149 30/44/150 80/45/151 79/46/152
s 5
f 30/119/153 31/120/154 81/121/155 80/122/156
f 31/120/154 32/123/157 82/124/158 81/121/155
s off
f 32/123/159 33/125/160 83/126/161 82/124/162
f 33/245/163 34/246/164 84/247/165 83/248/166
f 34/133/167 35/127/168 85/130/169 84/134/170
s 6
f 35/127/171 36/128/172 86/129/173 85/130/174
f 36/128/172 37/131/175 87/132/176 86/129/173
s 7
f 37/57/177 38/55/178 88/56/179 87/58/180
f 38/55/178 39/53/181 89/54/182 88/56/179
f 39/53/181 40/47/183 90/50/184 89/54/182
s 8
f 40/47/185 41/48/186 91/49/187 90/50/188
f 41/48/186 42/51/189 92/52/190 91/49/187
s off
f 42/139/191 43/135/192 93/138/193 92/140/194
f 43/135/195 44/136/196 94/137/197 93/138/198
f 44/59/199 45/60/200 95/61/201 94/62/202
s 1
f 45/77/203 46/75/204 96/76/205 95/78/206
f 46/75/204 47/73/207 97/74/208 96/76/205
f 47/73/207 48/71/209 98/72/210 97/74/208
f 48/71/209 49/69/211 99/70/212 98/72/210
f 49/69/211 50/67/213 100/68/214 99/70/212
f 50/67/213 1/63/51 51/66/54 100/68/214
s off
f 51/191/215 52/192/216 53/193/217 54/194/218 55/195/219 56/196/220 57/197/221 58/198/222 59/199/223 60/200/224 61/201/225 62/202/226 63/203/227 64/204/228 65/205/229 66/206/230 67/207/231 68/208/232 69/209/233 70/210/234 71/211/235 72/212/236 73/213/237 74/214/238 75/215/239 76/216/240 77/217/241 78/218/242 79/219/243 80/220/244 81/221/245 82/222/246 83/223/247 84/224/248 85/225/249 86/226/250 87/227/251 88/228/252 89/229/253 90/230/254 91/231/255 92/232/256 93/233/257 94/234/258 95/235/259 96/236/260 97/237/261 98/238/262 99/239/263 100/240/264
